<?xml version="1.0" encoding="UTF-8"?>
<svg width="258px" height="50px" viewBox="0 0 258 50" version="1.1" xmlns="http://www.w3.org/2000/svg" xmlns:xlink="http://www.w3.org/1999/xlink">
    <!-- Generator: Sketch 47 (45396) - http://www.bohemiancoding.com/sketch -->
    <title>Page 1 Copy 7</title>
    <desc>Created with Sketch.</desc>
    <defs></defs>
    <g id="Homepage-&amp;-Navigation" stroke="none" stroke-width="1" fill="none" fill-rule="evenodd">
        <g id="Home_desktop" transform="translate(-98.000000, -41.000000)">
            <g id="Group-16-Copy" transform="translate(0.000000, 4.000000)">
                <g id="Group-54">
                    <g id="Group-17-Copy" transform="translate(98.500000, 37.000000)">
                        <g id="Page-1-Copy-7" transform="translate(0.000000, 0.548057)">
                            <path d="M12.3563344,38.4947433 L0,38.4947433 L0,10.5870743 L11.8582157,10.5870743 C17.6193667,10.5870743 20.9785042,13.6422127 20.9785042,18.4248699 C20.9785042,21.5226488 18.8238245,23.5198403 17.3294685,24.1882599 C19.1137227,24.9719242 21.3937949,26.7351689 21.3937949,30.4598792 C21.3937949,35.6747042 17.6193667,38.4947433 12.3563344,38.4947433 Z M11.4026614,15.4469455 L5.76345175,15.4469455 L5.76345175,21.8752977 L11.4026614,21.8752977 C13.8472393,21.8752977 15.2150525,20.5822516 15.2150525,18.6611216 C15.2150525,16.7399916 13.8472393,15.4469455 11.4026614,15.4469455 Z M11.7742373,26.7743521 L5.76345175,26.7743521 L5.76345175,33.6337197 L11.7742373,33.6337197 C14.386772,33.6337197 15.6303431,32.0652386 15.6303431,30.1855967 C15.6303431,28.3036499 14.386772,26.7743521 11.7742373,26.7743521 Z" id="Fill-1" fill="#292929"></path>
                            <polygon id="Fill-3" fill="#292929" points="27.2791879 38.4952043 33.0426396 38.4952043 33.0426396 10.5875353 27.2791879 10.5875353"></polygon>
                            <path d="M55.595452,38.4947433 L49.8320002,27.3632528 L45.6871466,27.3632528 L45.6871466,38.4947433 L39.9248453,38.4947433 L39.9248453,10.5870743 L51.4897116,10.5870743 C57.5016475,10.5870743 61.0690056,14.4673651 61.0690056,19.1313202 C61.0690056,23.0496417 58.5404493,25.481306 55.67828,26.4631913 L62.2700123,38.4947433 L55.595452,38.4947433 Z M51.1192862,15.4469455 L45.6871466,15.4469455 L45.6871466,22.8168473 L51.1192862,22.8168473 C53.6478424,22.8168473 55.3055538,21.286397 55.3055538,19.1313202 C55.3055538,16.9750909 53.6478424,15.4469455 51.1192862,15.4469455 L51.1192862,15.4469455 Z" id="Fill-5" fill="#292929"></path>
                            <polygon id="Fill-6" fill="#292929" points="88.3422114 38.4947433 88.3422114 22.2279467 82.7053025 32.8108722 78.8077827 32.8108722 73.1283094 22.2279467 73.1283094 38.4947433 67.3648576 38.4947433 67.3648576 10.5870743 73.0443309 10.5870743 80.7553922 25.6772221 88.4250395 10.5870743 94.1056632 10.5870743 94.1056632 38.4947433"></polygon>
                            <path d="M168.725683,35.5551954 C166.361632,37.86931 163.542027,38.7301883 160.393411,38.7301883 C157.158516,38.7301883 154.508018,37.6342107 152.432715,35.67505 C149.447454,32.8504011 149.530282,29.3619425 149.530282,24.5412545 C149.530282,19.7194141 149.447454,16.2298031 152.432715,13.4086116 C154.508018,11.4494508 157.074537,10.3511683 160.393411,10.3511683 C167.231327,10.3511683 170.714706,14.584108 171.503874,19.2883988 L165.697857,19.2883988 C165.036383,16.6619709 163.336108,15.2110395 160.393411,15.2110395 C158.817377,15.2110395 157.532392,15.7987877 156.704112,16.7000017 C155.583632,17.8766506 155.293734,19.1696967 155.293734,24.5412545 C155.293734,29.91166 155.583632,31.2438893 156.704112,32.4205382 C157.532392,33.3229046 158.817377,33.8703172 160.393411,33.8703172 C162.1328,33.8703172 163.542027,33.2825689 164.4957,32.3006836 C165.449373,31.28192 165.8244,30.0292096 165.8244,28.5771257 L165.8244,27.5191789 L160.393411,27.5191789 L160.393411,22.9727735 L171.544137,22.9727735 L171.544137,27.0489803 C171.544137,31.0871564 170.798685,33.5176682 168.725683,35.5551954" id="Fill-7" fill="#292929"></path>
                            <polygon id="Fill-8" fill="#292929" points="192.387241 38.456482 192.387241 26.7764265 182.393806 26.7764265 182.393806 38.456482 176.631505 38.456482 176.631505 10.5499655 182.393806 10.5499655 182.393806 21.9557385 192.387241 21.9557385 192.387241 10.5499655 198.149542 10.5499655 198.149542 38.456482"></polygon>
                            <path d="M221.361642,38.4947433 L219.619953,33.5565057 L209.131851,33.5565057 L207.349898,38.4947433 L201.337962,38.4947433 L212.074547,10.5870743 L216.593278,10.5870743 L227.373578,38.4947433 L221.361642,38.4947433 Z M214.480012,18.8178545 L210.748148,28.9697646 L218.085333,28.9697646 L214.480012,18.8178545 Z" id="Fill-9" fill="#292929"></path>
                            <polygon id="Fill-10" fill="#292929" points="251.75482 10.5867286 244.085173 25.6780288 236.374111 10.5867286 230.694638 10.5867286 230.694638 38.4943976 236.455789 38.4943976 236.455789 22.2287534 242.137563 32.8116789 246.033933 32.8116789 251.671992 22.2287534 251.671992 38.4943976 257.434293 38.4943976 257.434293 10.5867286"></polygon>
                            <polygon id="Fill-11" fill="#D0021B" points="94.0708064 49.0896543 150.254683 49.0896543 150.254683 -7.10542736e-15 94.0708064 -7.10542736e-15"></polygon>
                            <polygon id="Fill-12" fill="#FFFFFF" points="104.576164 38.4986616 110.337315 38.4986616 110.337315 10.5909926 104.576164 10.5909926"></polygon>
                            <polygon id="Fill-13" fill="#FFFFFF" points="134.672311 38.4992378 122.982052 21.369258 122.982052 38.4992378 117.219751 38.4992378 117.219751 10.5904164 122.359691 10.5904164 134.053401 27.681213 134.053401 10.5904164 139.813402 10.5904164 139.813402 38.4992378"></polygon>
                        </g>
                    </g>
                </g>
            </g>
        </g>
    </g>
</svg>